<?xml version="1.0" encoding="utf-8"?>
<!-- Generator: Adobe Illustrator 27.3.1, SVG Export Plug-In . SVG Version: 6.00 Build 0)  -->
<svg version="1.1" id="Calque_1" xmlns="http://www.w3.org/2000/svg" xmlns:xlink="http://www.w3.org/1999/xlink" x="0px" y="0px"
	 viewBox="0 0 247 216.6" style="enable-background:new 0 0 247 216.6;" xml:space="preserve">
<style type="text/css">
	.st0{fill:#0068A6;}
	.st1{fill:#222A3A;}
</style>
<g>
	<g>
		<path class="st0" d="M124.1,0C87.7,0,52.4,7.1,19.2,21.2c-6.5,2.7-12.9,5.8-19.1,9v25.3c37.3-21.7,79.8-33.2,124-33.2
			c43.9,0,86,11.4,123.1,32.7V29.7c-5.9-3-12-5.9-18.1-8.5C195.8,7.2,160.5,0,124.1,0z"/>
	</g>
	<g>
		<path class="st0" d="M123.1,216.7c36.4,0,71.7-7.1,104.9-21.2c6.5-2.7,12.9-5.7,19.1-9v-25.3c-37.3,21.7-79.8,33.2-124,33.2
			c-43.9,0-86-11.4-123.1-32.7V187c5.9,3,12,5.9,18.1,8.5C51.4,209.6,86.7,216.7,123.1,216.7z"/>
	</g>
</g>
<g>
	<g>
		<path class="st1" d="M29.2,73.1h13.9l29.3,68.8H56.7l-6.2-15.3H21.6l-6.2,15.3H0.1L29.2,73.1z M45,113.3l-9.1-22.2l-9.1,22.2H45z"
			/>
		<path class="st1" d="M70.4,108v-0.2c0-19.4,15.1-35.3,35.8-35.3c12.3,0,19.7,3.3,26.9,9.4l-9.5,11.4c-5.3-4.4-10-6.9-17.9-6.9
			c-10.9,0-19.6,9.7-19.6,21.3v0.2c0,12.5,8.6,21.7,20.7,21.7c5.5,0,10.4-1.4,14.2-4.1v-9.8h-15.2v-13h29.7v29.7
			c-7,6-16.7,10.8-29.2,10.8C85,143.1,70.4,128.2,70.4,108z"/>
		<path class="st1" d="M171.6,73.6h27.9c16.3,0,26.2,9.7,26.2,23.6v0.2c0,15.8-12.3,24-27.6,24h-11.4v20.5h-15V73.6H171.6z
			 M198.6,108.1c7.5,0,11.9-4.5,11.9-10.4v-0.2c0-6.7-4.7-10.4-12.2-10.4h-11.6V108h11.9V108.1z"/>
	</g>
	<path class="st1" d="M145.2,73.5H160v68.4h-14.8V73.5z"/>
	<path class="st1" d="M232.1,73.5h14.8v68.4h-14.8V73.5z"/>
</g>
</svg>
