<svg width="35" height="31" viewBox="0 0 35 31" fill="none" xmlns="http://www.w3.org/2000/svg">
<path d="M33.9049 13.5625H32.1188C31.5859 12.3516 30.8109 11.2799 29.8543 10.3838L30.9986 5.8125H29.0611C27.2811 5.8125 25.7068 6.62988 24.6412 7.88926C24.1811 7.82266 23.727 7.75 23.2486 7.75H15.4986C10.8123 7.75 6.90703 11.0801 6.00489 15.5H3.38926C2.49317 15.5 1.78477 14.6826 1.96641 13.7562C2.09961 13.066 2.74746 12.5938 3.44981 12.5938H3.51035C3.71016 12.5938 3.87364 12.4303 3.87364 12.2305V11.0195C3.87364 10.8197 3.71016 10.6562 3.51035 10.6562C1.78477 10.6562 0.246877 11.8914 0.0289085 13.5988C-0.237498 15.6695 1.37305 17.4375 3.38926 17.4375H5.81114C5.81114 20.598 7.34903 23.3771 9.68614 25.1451V30.0312C9.68614 30.5641 10.1221 31 10.6549 31H14.5299C15.0627 31 15.4986 30.5641 15.4986 30.0312V27.125H23.2486V30.0312C23.2486 30.5641 23.6846 31 24.2174 31H28.0924C28.6252 31 29.0611 30.5641 29.0611 30.0312V25.1451C29.7756 24.6062 30.4113 23.9705 30.9563 23.25H33.9049C34.4377 23.25 34.8736 22.8141 34.8736 22.2812V14.5312C34.8736 13.9984 34.4377 13.5625 33.9049 13.5625ZM26.1549 17.4375C25.6221 17.4375 25.1861 17.0016 25.1861 16.4688C25.1861 15.9359 25.6221 15.5 26.1549 15.5C26.6877 15.5 27.1236 15.9359 27.1236 16.4688C27.1236 17.0016 26.6877 17.4375 26.1549 17.4375ZM15.4986 5.8125H23.2486C23.5756 5.8125 23.8965 5.83672 24.2113 5.86094C24.2113 5.84277 24.2174 5.83066 24.2174 5.8125C24.2174 2.60352 21.6139 0 18.4049 0C15.1959 0 12.5924 2.60352 12.5924 5.8125C12.5924 5.93965 12.6227 6.06074 12.6287 6.18789C13.549 5.95176 14.5057 5.8125 15.4986 5.8125Z" fill="white"/>
</svg>
