<svg width="31" height="27" viewBox="0 0 31 27" fill="none" xmlns="http://www.w3.org/2000/svg">
<path d="M28.8489 5.11964H22.1151V1.75277C22.1151 0.821621 21.3628 0.0693359 20.4317 0.0693359H10.3311C9.39993 0.0693359 8.64764 0.821621 8.64764 1.75277V5.11964H1.9139C0.982754 5.11964 0.230469 5.87193 0.230469 6.80308V26.1626C0.230469 26.6255 0.609242 27.0043 1.07219 27.0043H29.6906C30.1535 27.0043 30.5323 26.6255 30.5323 26.1626V6.80308C30.5323 5.87193 29.78 5.11964 28.8489 5.11964ZM8.64764 23.0061C8.64764 23.3533 8.36356 23.6374 8.01636 23.6374H5.91206C5.56485 23.6374 5.28077 23.3533 5.28077 23.0061V20.9018C5.28077 20.5546 5.56485 20.2706 5.91206 20.2706H8.01636C8.36356 20.2706 8.64764 20.5546 8.64764 20.9018V23.0061ZM8.64764 16.2724C8.64764 16.6196 8.36356 16.9037 8.01636 16.9037H5.91206C5.56485 16.9037 5.28077 16.6196 5.28077 16.2724V14.1681C5.28077 13.8209 5.56485 13.5368 5.91206 13.5368H8.01636C8.36356 13.5368 8.64764 13.8209 8.64764 14.1681V16.2724ZM17.0648 23.0061C17.0648 23.3533 16.7807 23.6374 16.4335 23.6374H14.3292C13.982 23.6374 13.6979 23.3533 13.6979 23.0061V20.9018C13.6979 20.5546 13.982 20.2706 14.3292 20.2706H16.4335C16.7807 20.2706 17.0648 20.5546 17.0648 20.9018V23.0061ZM17.0648 16.2724C17.0648 16.6196 16.7807 16.9037 16.4335 16.9037H14.3292C13.982 16.9037 13.6979 16.6196 13.6979 16.2724V14.1681C13.6979 13.8209 13.982 13.5368 14.3292 13.5368H16.4335C16.7807 13.5368 17.0648 13.8209 17.0648 14.1681V16.2724ZM17.9065 7.32915C17.9065 7.50275 17.7645 7.64479 17.5909 7.64479H16.2231V9.01259C16.2231 9.18619 16.0811 9.32823 15.9075 9.32823H14.8553C14.6817 9.32823 14.5397 9.18619 14.5397 9.01259V7.64479H13.1719C12.9983 7.64479 12.8562 7.50275 12.8562 7.32915V6.277C12.8562 6.1034 12.9983 5.96136 13.1719 5.96136H14.5397V4.59357C14.5397 4.41996 14.6817 4.27792 14.8553 4.27792H15.9075C16.0811 4.27792 16.2231 4.41996 16.2231 4.59357V5.96136H17.5909C17.7645 5.96136 17.9065 6.1034 17.9065 6.277V7.32915ZM25.482 23.0061C25.482 23.3533 25.1979 23.6374 24.8507 23.6374H22.7464C22.3992 23.6374 22.1151 23.3533 22.1151 23.0061V20.9018C22.1151 20.5546 22.3992 20.2706 22.7464 20.2706H24.8507C25.1979 20.2706 25.482 20.5546 25.482 20.9018V23.0061ZM25.482 16.2724C25.482 16.6196 25.1979 16.9037 24.8507 16.9037H22.7464C22.3992 16.9037 22.1151 16.6196 22.1151 16.2724V14.1681C22.1151 13.8209 22.3992 13.5368 22.7464 13.5368H24.8507C25.1979 13.5368 25.482 13.8209 25.482 14.1681V16.2724Z" fill="#EEEEEE"/>
</svg>
