<svg width="35" height="28" viewBox="0 0 35 28" fill="none" xmlns="http://www.w3.org/2000/svg">
<path d="M27.125 12.25C22.7724 12.25 19.25 15.7724 19.25 20.125C19.25 24.4776 22.7724 28 27.125 28C31.4776 28 35 24.4776 35 20.125C35 15.7724 31.4776 12.25 27.125 12.25ZM30.625 20.469C30.625 20.761 30.386 21 30.094 21H26.7816C26.4895 21 26.2505 20.761 26.2505 20.469V16.2816C26.2505 15.9895 26.4895 15.7505 26.7816 15.7505H27.469C27.761 15.7505 28 15.9895 28 16.2816V19.25H30.094C30.386 19.25 30.625 19.489 30.625 19.781V20.469ZM27.125 10.5C27.4203 10.5 27.7113 10.518 28 10.5443V7.875C28 6.475 26.775 5.25 25.375 5.25H21V2.625C21 1.225 19.775 0 18.375 0H9.625C8.225 0 7 1.225 7 2.625V5.25H2.625C1.225 5.25 0 6.475 0 7.875V12.25H21.6081C23.1722 11.1513 25.0726 10.5 27.125 10.5ZM17.5 5.25H10.5V3.5H17.5V5.25ZM17.873 17.5H11.375C10.8916 17.5 10.5 17.1084 10.5 16.625V14H0V21.875C0 23.275 1.225 24.5 2.625 24.5H18.5626C17.8883 23.1853 17.5 21.7011 17.5 20.125C17.5 19.2139 17.6356 18.3356 17.873 17.5Z" fill="white"/>
</svg>
